PathFileType	4	(X/Y/Z)	/home/nbianco/projects/addbio/data/HamnerRunning2013/Processed/subject11//results/MarkerData/run500.trc
DataRate	CameraRate	NumFrames	NumMarkers	Units	OrigDataRate	OrigDataStartFrame	OrigNumFrames
100	100	9	42	m	100	63	169
Frame#	Time	C7			CLAV			LACR			LASI			LCAL			LFAradius			LFAsuperior			LFAulna			LLEL			LMEL			LMT5			LPSI			LTB1			LTB2			LTB3			LTH1			LTH2			LTH3			LTOE			LUA1			LUA2			LUA3			RACR			RASI			RCAL			RFAradius			RFAsuperior			RFAulna			RLEL			RMEL			RMT5			RPSI			RTB1			RTB2			RTB3			RTH1			RTH2			RTH3			RTOE			RUA1			RUA2			RUA3		
		X1	Y1	Z1	X2	Y2	Z2	X3	Y3	Z3	X4	Y4	Z4	X5	Y5	Z5	X6	Y6	Z6	X7	Y7	Z7	X8	Y8	Z8	X9	Y9	Z9	X10	Y10	Z10	X11	Y11	Z11	X12	Y12	Z12	X13	Y13	Z13	X14	Y14	Z14	X15	Y15	Z15	X16	Y16	Z16	X17	Y17	Z17	X18	Y18	Z18	X19	Y19	Z19	X20	Y20	Z20	X21	Y21	Z21	X22	Y22	Z22	X23	Y23	Z23	X24	Y24	Z24	X25	Y25	Z25	X26	Y26	Z26	X27	Y27	Z27	X28	Y28	Z28	X29	Y29	Z29	X30	Y30	Z30	X31	Y31	Z31	X32	Y32	Z32	X33	Y33	Z33	X34	Y34	Z34	X35	Y35	Z35	X36	Y36	Z36	X37	Y37	Z37	X38	Y38	Z38	X39	Y39	Z39	X40	Y40	Z40	X41	Y41	Z41	X42	Y42	Z42

64	0.76	0.705998	1.47611	-0.305355	0.815778	1.38096	-0.262046	0.791175	1.43014	-0.46659	0.759209	0.966672	-0.436998	0.336541	0.560233	-0.361758	0.887446	1.01722	-0.479802	0.790563	1.08752	-0.592948	0.874781	0.966048	-0.52886	0.699781	1.13826	-0.633629	0.65028	1.12864	-0.569792	0.20992	0.432687	-0.442681	0.584184	0.991818	-0.37105	0.571829	0.40314	-0.376635	0.495708	0.447863	-0.439673	0.420162	0.431833	-0.372813	0.680738	0.764889	-0.475962	0.738377	0.636496	-0.46163	0.686557	0.525298	-0.441771	0.207731	0.369951	-0.358872	0.750341	1.34915	-0.553528	0.681057	1.278	-0.543817	0.701141	1.22069	-0.602247	0.7521	1.45455	-0.132163	0.743689	0.985267	-0.167779	0.649165	0.103274	-0.270212	0.753741	1.0489	0.0232206	0.627439	1.14111	0.0324443	0.700159	1.00096	0.0340002	0.543532	1.20715	0.00552708	0.545064	1.18524	-0.0745764	0.818622	0.0565948	-0.193271	0.574952	0.994174	-0.26983	0.859556	0.368592	-0.257597	0.821881	0.316736	-0.196477	0.797379	0.208931	-0.260324	0.694182	0.80261	-0.128445	0.797483	0.715045	-0.138086	0.775064	0.586943	-0.180167	0.87305	0.0664801	-0.281376	0.680875	1.39272	-0.0528447	0.602057	1.33602	-0.0839143	0.611224	1.28922	-0.0250701
65	0.77	0.705073	1.474	-0.304676	0.81573	1.37881	-0.263405	0.7865	1.42811	-0.468439	0.75611	0.960847	-0.437976	0.367559	0.551681	-0.362818	0.869326	0.996258	-0.491096	0.773336	1.07994	-0.596793	0.850702	0.949363	-0.542443	0.68451	1.13762	-0.631478	0.637674	1.12864	-0.567261	0.249235	0.415764	-0.442713	0.582046	0.991517	-0.372299	0.610664	0.401247	-0.374898	0.534207	0.436978	-0.437629	0.456461	0.425293	-0.373123	0.686117	0.761164	-0.474033	0.754861	0.636464	-0.46152	0.713431	0.524153	-0.442408	0.248842	0.355464	-0.357347	0.742678	1.34735	-0.553089	0.67264	1.27686	-0.540516	0.689713	1.21982	-0.599839	0.753741	1.45189	-0.13222	0.743119	0.98457	-0.166264	0.599129	0.104921	-0.269422	0.773099	1.04495	0.024423	0.646323	1.13389	0.0376122	0.721199	0.995916	0.0380877	0.559624	1.19698	0.0147957	0.555663	1.17455	-0.0644232	0.768348	0.0571864	-0.191663	0.573837	0.994421	-0.270301	0.829023	0.362071	-0.259434	0.789259	0.311953	-0.198146	0.754749	0.20555	-0.259922	0.689001	0.801466	-0.128707	0.788163	0.710299	-0.139758	0.759246	0.583877	-0.181667	0.823198	0.0675762	-0.278411	0.686857	1.38764	-0.0508613	0.60945	1.3275	-0.0781816	0.622839	1.28235	-0.0190066
66	0.78	0.704023	1.47312	-0.304231	0.815532	1.37799	-0.265216	0.781573	1.42738	-0.47012	0.752722	0.958633	-0.440068	0.39597	0.540067	-0.365346	0.849333	0.979985	-0.502105	0.755341	1.07606	-0.599996	0.825425	0.937862	-0.555652	0.668398	1.13941	-0.629556	0.624971	1.13084	-0.56408	0.289764	0.392732	-0.44193	0.580382	0.992343	-0.372313	0.650668	0.400956	-0.372513	0.573963	0.428433	-0.434937	0.493915	0.417401	-0.373304	0.690065	0.759619	-0.472029	0.773097	0.63997	-0.461254	0.742118	0.526986	-0.443882	0.292952	0.335566	-0.354942	0.734623	1.34732	-0.552788	0.664413	1.27747	-0.53687	0.67702	1.22115	-0.597171	0.755782	1.45071	-0.132855	0.743698	0.984669	-0.166622	0.548655	0.10649	-0.268269	0.79262	1.04415	0.0246955	0.665198	1.12994	0.0416903	0.742807	0.99396	0.040947	0.575898	1.19003	0.0228616	0.565104	1.16686	-0.0545757	0.71798	0.0574708	-0.18915	0.574358	0.99509	-0.270463	0.794542	0.353266	-0.260997	0.752655	0.304685	-0.199775	0.709658	0.200754	-0.259236	0.683512	0.800928	-0.13005	0.778539	0.706133	-0.142556	0.739924	0.580084	-0.182454	0.772558	0.0674276	-0.276337	0.69221	1.38542	-0.0497907	0.616789	1.32172	-0.0745613	0.633719	1.27837	-0.014433
67	0.79	0.703024	1.47334	-0.303879	0.815417	1.37831	-0.267383	0.776882	1.42783	-0.471638	0.749625	0.960189	-0.44275	0.421649	0.52502	-0.368398	0.827861	0.969768	-0.51247	0.736502	1.076	-0.603464	0.799731	0.93228	-0.567765	0.651172	1.14413	-0.628505	0.611827	1.13562	-0.561095	0.332166	0.364814	-0.44056	0.579201	0.993184	-0.371033	0.690545	0.402107	-0.370049	0.613706	0.421944	-0.432161	0.532205	0.408507	-0.373282	0.692921	0.759725	-0.469793	0.79239	0.647433	-0.461685	0.771438	0.533153	-0.445466	0.34026	0.311054	-0.351983	0.726206	1.34909	-0.552889	0.656063	1.27982	-0.533273	0.662915	1.2251	-0.594568	0.75842	1.45114	-0.133935	0.745168	0.98464	-0.168684	0.498557	0.108728	-0.26681	0.811555	1.04719	0.0240104	0.682824	1.12957	0.0448167	0.764191	0.995771	0.0425776	0.591166	1.18664	0.0293252	0.574152	1.16258	-0.0460124	0.667492	0.0575769	-0.186682	0.575947	0.995456	-0.271563	0.757213	0.343651	-0.26222	0.71329	0.297124	-0.200668	0.663561	0.196513	-0.258551	0.67672	0.800473	-0.13124	0.767814	0.701919	-0.145361	0.718615	0.576019	-0.182456	0.721584	0.0668352	-0.275129	0.697485	1.38552	-0.0493213	0.623602	1.31896	-0.0722164	0.643523	1.27709	-0.0112489
68	0.8	0.702286	1.47458	-0.303647	0.815611	1.37977	-0.269842	0.772632	1.42952	-0.473126	0.747611	0.964268	-0.445293	0.445683	0.505884	-0.371069	0.805718	0.966228	-0.522215	0.716547	1.07951	-0.607877	0.774213	0.932557	-0.578297	0.632779	1.15206	-0.628409	0.597815	1.14327	-0.559035	0.377555	0.33362	-0.438858	0.578719	0.994071	-0.368801	0.729492	0.404619	-0.367926	0.652506	0.416799	-0.429712	0.571063	0.398946	-0.373009	0.696123	0.76148	-0.467905	0.811665	0.658814	-0.463302	0.800138	0.542675	-0.446613	0.391175	0.283387	-0.348827	0.717467	1.35288	-0.553467	0.647268	1.28429	-0.529769	0.647601	1.23201	-0.59219	0.761707	1.4532	-0.135509	0.74711	0.984194	-0.171559	0.449526	0.112752	-0.264963	0.829361	1.05414	0.0223588	0.698658	1.13251	0.0470958	0.784567	1.00152	0.0431426	0.60485	1.18655	0.0341549	0.583861	1.16152	-0.0395408	0.617167	0.0574628	-0.185005	0.577928	0.995443	-0.273773	0.718308	0.335719	-0.262962	0.672555	0.291939	-0.200572	0.617729	0.194712	-0.25818	0.668477	0.800105	-0.131891	0.755765	0.697666	-0.147752	0.696597	0.572879	-0.182018	0.670742	0.066093	-0.274455	0.703344	1.38744	-0.0492294	0.629935	1.31926	-0.0700323	0.65257	1.27818	-0.00917352
69	0.81	0.701944	1.4768	-0.303748	0.816268	1.38243	-0.272632	0.768735	1.43257	-0.474702	0.747332	0.969375	-0.447218	0.469624	0.482276	-0.372761	0.784027	0.969172	-0.531544	0.695612	1.08647	-0.613034	0.74938	0.938033	-0.587117	0.613606	1.1631	-0.628783	0.582774	1.15394	-0.557956	0.426565	0.300801	-0.437016	0.57935	0.995715	-0.366356	0.767054	0.408484	-0.366408	0.689796	0.412753	-0.427847	0.610248	0.38902	-0.372483	0.701409	0.765318	-0.467548	0.829842	0.673287	-0.465739	0.827208	0.555803	-0.447533	0.446163	0.254441	-0.345963	0.708512	1.35884	-0.55435	0.638112	1.29134	-0.526227	0.631726	1.24182	-0.590089	0.765565	1.45667	-0.137704	0.749305	0.983493	-0.1743	0.401954	0.119566	-0.262644	0.845796	1.06445	0.0197907	0.712892	1.1382	0.0485127	0.803495	1.01069	0.0427412	0.617054	1.18915	0.0376286	0.594402	1.16314	-0.0352171	0.567388	0.057218	-0.184266	0.580052	0.995263	-0.276281	0.679148	0.331427	-0.26304	0.631589	0.290595	-0.199797	0.57292	0.196053	-0.258212	0.659622	0.800214	-0.132434	0.742597	0.693905	-0.14998	0.674079	0.571617	-0.181594	0.620433	0.0650129	-0.274175	0.710008	1.3909	-0.0495152	0.63613	1.32222	-0.0675936	0.661323	1.28128	-0.00793493
70	0.82	0.701992	1.47995	-0.304372	0.817408	1.38632	-0.275825	0.764938	1.43694	-0.476386	0.748913	0.974883	-0.448436	0.494803	0.454352	-0.373099	0.763764	0.977634	-0.540471	0.674507	1.09678	-0.617977	0.725779	0.947683	-0.594344	0.594409	1.17671	-0.628921	0.56701	1.16735	-0.557156	0.479089	0.267752	-0.435189	0.581477	0.998704	-0.364561	0.802878	0.413679	-0.365665	0.725295	0.40991	-0.42676	0.649531	0.37894	-0.371772	0.709698	0.771567	-0.469641	0.846255	0.689445	-0.468043	0.852083	0.572076	-0.448868	0.505368	0.22605	-0.343823	0.699566	1.36684	-0.555192	0.629087	1.301	-0.522739	0.61623	1.25402	-0.588271	0.769776	1.46128	-0.140524	0.751871	0.982721	-0.176331	0.356232	0.129628	-0.260068	0.860799	1.07718	0.0164281	0.725959	1.14608	0.0490113	0.820946	1.02232	0.0412932	0.628155	1.19379	0.040126	0.604942	1.16685	-0.0324112	0.51835	0.0570214	-0.184288	0.582531	0.995036	-0.278152	0.640653	0.33128	-0.262217	0.591107	0.292908	-0.19867	0.529531	0.200275	-0.258397	0.651026	0.801138	-0.133326	0.728421	0.691288	-0.152151	0.650669	0.57259	-0.181346	0.571094	0.063686	-0.274234	0.717157	1.39573	-0.0502924	0.642434	1.32721	-0.0653391	0.669948	1.28599	-0.00733249
71	0.83	0.702313	1.48387	-0.30549	0.81891	1.39132	-0.279395	0.761048	1.44244	-0.478108	0.751968	0.981058	-0.449028	0.522231	0.422759	-0.371908	0.745322	0.990084	-0.548617	0.654336	1.11004	-0.621683	0.703919	0.960334	-0.600133	0.57603	1.19208	-0.628279	0.551213	1.18283	-0.555643	0.534919	0.23561	-0.433459	0.585187	1.00311	-0.364008	0.836642	0.420055	-0.365814	0.758909	0.408232	-0.426616	0.688739	0.368767	-0.371014	0.720596	0.780061	-0.474085	0.860901	0.706007	-0.469499	0.874602	0.590114	-0.450939	0.5684	0.199614	-0.342447	0.691009	1.37645	-0.555664	0.620709	1.3128	-0.519711	0.601981	1.2678	-0.586684	0.774022	1.46672	-0.143786	0.755121	0.981954	-0.177461	0.312996	0.14279	-0.257805	0.874328	1.09138	0.0124335	0.738049	1.1556	0.0486272	0.837053	1.03539	0.0387391	0.638411	1.19994	0.0419497	0.614534	1.17213	-0.0303883	0.46998	0.0570585	-0.184888	0.585735	0.994785	-0.278963	0.603028	0.334643	-0.260248	0.551437	0.29796	-0.197074	0.487891	0.206904	-0.258248	0.642946	0.803044	-0.134613	0.713343	0.690337	-0.153914	0.626364	0.575969	-0.181059	0.522881	0.062518	-0.274539	0.724238	1.40166	-0.0516205	0.648803	1.33352	-0.0638554	0.678322	1.29192	-0.00718977
72	0.84	0.702758	1.48834	-0.306851	0.820574	1.39714	-0.283178	0.757144	1.4487	-0.479758	0.75598	0.988239	-0.449006	0.552886	0.388495	-0.369354	0.728558	1.00482	-0.555424	0.635893	1.1254	-0.623666	0.684114	0.974874	-0.604519	0.559103	1.20846	-0.626611	0.536186	1.19947	-0.552745	0.59423	0.205455	-0.431773	0.590182	1.00862	-0.364798	0.868137	0.427231	-0.366891	0.790505	0.40736	-0.427451	0.72785	0.358412	-0.370388	0.73289	0.790274	-0.479811	0.87424	0.722356	-0.470136	0.894585	0.608227	-0.453254	0.634502	0.176063	-0.341557	0.683297	1.38715	-0.555622	0.613188	1.32607	-0.517488	0.589448	1.28239	-0.585149	0.778011	1.47271	-0.147265	0.759266	0.981331	-0.177832	0.273004	0.158607	-0.256391	0.886327	1.10628	0.00797503	0.749064	1.16623	0.0475286	0.851822	1.04917	0.0353165	0.64788	1.20712	0.0432849	0.622858	1.17853	-0.0287623	0.422182	0.0576745	-0.185834	0.589863	0.994654	-0.278907	0.566263	0.340844	-0.257097	0.512783	0.305417	-0.194602	0.448454	0.215681	-0.257209	0.635365	0.806093	-0.136079	0.697951	0.691357	-0.154874	0.601962	0.582187	-0.180423	0.47536	0.0616273	-0.275017	0.730801	1.40833	-0.0534447	0.655011	1.34064	-0.0632073	0.6863	1.2987	-0.00732886
